<!DOCTYPE svg PUBLIC "-//W3C//DTD SVG 1.1//EN" "http://www.w3.org/Graphics/SVG/1.1/DTD/svg11.dtd">
<!-- Uploaded to: SVG Repo, www.svgrepo.com, Transformed by: SVG Repo Mixer Tools -->
<svg width="800px" height="800px" viewBox="0 0 1024 1024" class="icon" version="1.1" xmlns="http://www.w3.org/2000/svg" fill="#000000">
<g id="SVGRepo_bgCarrier" stroke-width="0"/>
<g id="SVGRepo_tracerCarrier" stroke-linecap="round" stroke-linejoin="round"/>
<g id="SVGRepo_iconCarrier">
<path d="M704 341.333333l-192 576c6.613333 0 12.885333-3.072 16.896-8.32L964.906667 342.229333 964.330667 341.333333H704z" fill="#fedc6c"/>
<path d="M964.330667 341.333333L789.333333 64l-85.333333 277.333333z" fill="#f7e99c"/>
<path d="M234.666667 64L59.669333 341.333333H320z" fill="#f8d668"/>
<path d="M59.669333 341.333333l-0.576 0.896L495.104 909.013333c4.010667 5.248 10.261333 8.32 16.896 8.32l-192-576H59.669333zM512 64H234.666667l85.333333 277.333333z" fill="#fedc6c"/>
<path d="M320 341.333333l192 576 192-576z" fill="#f7e99c"/>
<path d="M789.333333 64H512l192 277.333333z" fill="#fedc6c"/>
<path d="M704 341.333333L512 64l-192 277.333333z" fill="#f8d668"/>
</g>
</svg>